<svg width="304" height="42" viewBox="0 0 304 42" fill="none" xmlns="http://www.w3.org/2000/svg">
<path d="M15.76 33.76C13.12 33.76 10.8533 33.2933 8.96 32.36C7.06667 31.4267 5.52 30.2133 4.32 28.72C3.14667 27.2267 2.28 25.6 1.72 23.84C1.16 22.08 0.88 20.3867 0.88 18.76V17.88C0.88 16.0667 1.16 14.28 1.72 12.52C2.30667 10.76 3.2 9.16 4.4 7.72C5.6 6.28 7.12 5.13333 8.96 4.28C10.8267 3.4 13.0267 2.96 15.56 2.96C18.2 2.96 20.4933 3.44 22.44 4.4C24.4133 5.33333 25.9867 6.66667 27.16 8.4C28.3333 10.1067 29.04 12.1067 29.28 14.4H23.56C23.3467 13.0667 22.8667 11.9467 22.12 11.04C21.4 10.1067 20.48 9.41333 19.36 8.96C18.24 8.48 16.9733 8.24 15.56 8.24C14.12 8.24 12.84 8.49333 11.72 9C10.6 9.48 9.66667 10.1733 8.92 11.08C8.17333 11.9867 7.6 13.0533 7.2 14.28C6.82667 15.5067 6.64 16.8667 6.64 18.36C6.64 19.8 6.82667 21.1333 7.2 22.36C7.6 23.5867 8.18667 24.6667 8.96 25.6C9.73333 26.5067 10.68 27.2133 11.8 27.72C12.9467 28.2267 14.2667 28.48 15.76 28.48C17.9467 28.48 19.7867 27.9467 21.28 26.88C22.8 25.7867 23.72 24.2667 24.04 22.32H29.76C29.4933 24.4 28.7867 26.3067 27.64 28.04C26.4933 29.7733 24.92 31.16 22.92 32.2C20.92 33.24 18.5333 33.76 15.76 33.76ZM44.5531 33.76C42.6331 33.76 40.9398 33.4533 39.4731 32.84C38.0065 32.2267 36.7665 31.4 35.7531 30.36C34.7398 29.2933 33.9665 28.0933 33.4331 26.76C32.9265 25.4267 32.6731 24.04 32.6731 22.6V21.76C32.6731 20.2667 32.9398 18.8533 33.4731 17.52C34.0331 16.16 34.8198 14.96 35.8331 13.92C36.8731 12.8533 38.1265 12.0267 39.5931 11.44C41.0598 10.8267 42.7131 10.52 44.5531 10.52C46.3931 10.52 48.0465 10.8267 49.5131 11.44C50.9798 12.0267 52.2198 12.8533 53.2331 13.92C54.2731 14.96 55.0598 16.16 55.5931 17.52C56.1265 18.8533 56.3931 20.2667 56.3931 21.76V22.6C56.3931 24.04 56.1265 25.4267 55.5931 26.76C55.0865 28.0933 54.3265 29.2933 53.3131 30.36C52.2998 31.4 51.0598 32.2267 49.5931 32.84C48.1265 33.4533 46.4465 33.76 44.5531 33.76ZM44.5531 29C45.9131 29 47.0598 28.7067 47.9931 28.12C48.9265 27.5067 49.6331 26.6933 50.1131 25.68C50.5931 24.64 50.8331 23.4667 50.8331 22.16C50.8331 20.8267 50.5798 19.6533 50.0731 18.64C49.5931 17.6 48.8731 16.7867 47.9131 16.2C46.9798 15.5867 45.8598 15.28 44.5531 15.28C43.2465 15.28 42.1131 15.5867 41.1531 16.2C40.2198 16.7867 39.4998 17.6 38.9931 18.64C38.4865 19.6533 38.2331 20.8267 38.2331 22.16C38.2331 23.4667 38.4731 24.64 38.9531 25.68C39.4598 26.6933 40.1798 27.5067 41.1131 28.12C42.0465 28.7067 43.1931 29 44.5531 29ZM61.5416 33V3.8H67.1016V33H61.5416ZM58.8216 7.96V3.8H67.1016V7.96H58.8216ZM74.4891 33V11.28H80.0491V33H74.4891ZM71.4491 15.44V11.28H80.0491V15.44H71.4491ZM76.5291 8.68C75.4357 8.68 74.6224 8.4 74.0891 7.84C73.5824 7.25333 73.3291 6.53333 73.3291 5.68C73.3291 4.77333 73.5824 4.04 74.0891 3.48C74.6224 2.92 75.4357 2.64 76.5291 2.64C77.6224 2.64 78.4224 2.92 78.9291 3.48C79.4357 4.04 79.6891 4.77333 79.6891 5.68C79.6891 6.53333 79.4357 7.25333 78.9291 7.84C78.4224 8.4 77.6224 8.68 76.5291 8.68ZM86.4569 33V11.28H90.8569V20.6H90.4569C90.4569 18.3867 90.7502 16.5467 91.3369 15.08C91.9235 13.5867 92.7902 12.4667 93.9369 11.72C95.1102 10.9733 96.5635 10.6 98.2969 10.6H98.5369C101.124 10.6 103.084 11.44 104.417 13.12C105.75 14.7733 106.417 17.2533 106.417 20.56V33H100.857V20.08C100.857 18.7467 100.47 17.6667 99.6969 16.84C98.9502 16.0133 97.9102 15.6 96.5769 15.6C95.2169 15.6 94.1102 16.0267 93.2569 16.88C92.4302 17.7067 92.0169 18.8267 92.0169 20.24V33H86.4569ZM135.696 33.68C133.163 33.68 130.963 33.2533 129.096 32.4C127.256 31.5467 125.723 30.4 124.496 28.96C123.296 27.52 122.403 25.9067 121.816 24.12C121.229 22.3067 120.936 20.4667 120.936 18.6V17.96C120.936 16.12 121.229 14.32 121.816 12.56C122.429 10.7733 123.323 9.16 124.496 7.72C125.696 6.28 127.176 5.14667 128.936 4.32C130.696 3.46667 132.736 3.04 135.056 3.04C137.376 3.04 139.429 3.48 141.216 4.36C143.029 5.21333 144.483 6.42667 145.576 8C146.669 9.54667 147.336 11.36 147.576 13.44H145.376C145.163 11.6267 144.576 10.1067 143.616 8.88C142.656 7.62667 141.429 6.68 139.936 6.04C138.469 5.37333 136.843 5.04 135.056 5.04C133.163 5.04 131.469 5.38666 129.976 6.08C128.509 6.77333 127.269 7.73333 126.256 8.96C125.243 10.16 124.469 11.56 123.936 13.16C123.403 14.76 123.136 16.4667 123.136 18.28C123.136 20.0933 123.389 21.8133 123.896 23.44C124.403 25.0667 125.176 26.4933 126.216 27.72C127.256 28.9467 128.563 29.92 130.136 30.64C131.709 31.3333 133.563 31.68 135.696 31.68C138.016 31.68 140.069 31.2533 141.856 30.4C143.643 29.52 145.029 28.3467 146.016 26.88L145.096 29.68V21.04H147.176V28.72C145.976 30.2133 144.403 31.4133 142.456 32.32C140.536 33.2267 138.283 33.68 135.696 33.68ZM134.616 21.6V19.76H149.896V21.6H134.616ZM155.698 33V12H157.378V20.88H157.058C157.058 17.84 157.738 15.5733 159.098 14.08C160.458 12.5867 162.658 11.84 165.698 11.84H166.418V13.76H165.298C162.818 13.76 160.951 14.4 159.698 15.68C158.445 16.9333 157.818 18.7867 157.818 21.24V33H155.698ZM179.883 33.68C178.096 33.68 176.55 33.3733 175.243 32.76C173.936 32.12 172.87 31.28 172.043 30.24C171.216 29.1733 170.59 27.9867 170.163 26.68C169.763 25.3467 169.563 24 169.563 22.64V22.24C169.563 20.8533 169.763 19.52 170.163 18.24C170.59 16.96 171.216 15.8 172.043 14.76C172.896 13.6933 173.95 12.8667 175.203 12.28C176.483 11.6667 177.963 11.36 179.643 11.36C181.776 11.36 183.563 11.84 185.003 12.8C186.47 13.7333 187.576 14.96 188.323 16.48C189.07 18 189.443 19.6 189.443 21.28V22.72H170.563V20.96H188.043L187.403 21.76C187.403 20.1333 187.096 18.68 186.483 17.4C185.896 16.12 185.016 15.12 183.843 14.4C182.696 13.6533 181.296 13.28 179.643 13.28C177.856 13.28 176.363 13.6933 175.163 14.52C173.963 15.3467 173.056 16.4533 172.443 17.84C171.856 19.2267 171.563 20.76 171.563 22.44C171.563 24.12 171.856 25.6667 172.443 27.08C173.056 28.4667 173.976 29.6 175.203 30.48C176.43 31.3333 177.99 31.76 179.883 31.76C181.91 31.76 183.536 31.2933 184.763 30.36C186.016 29.4267 186.776 28.3067 187.043 27H189.123C188.83 28.3067 188.27 29.4667 187.443 30.48C186.616 31.4933 185.563 32.28 184.283 32.84C183.03 33.4 181.563 33.68 179.883 33.68ZM178.323 8.52L181.723 0.959998H184.003L180.203 8.52H178.323ZM203.542 41.2C202.609 41.2 201.635 41.16 200.622 41.08C199.609 41 198.635 40.88 197.702 40.72V38.84C198.662 39 199.662 39.12 200.702 39.2C201.769 39.3067 202.769 39.36 203.702 39.36C205.835 39.36 207.515 39.08 208.742 38.52C209.969 37.9867 210.849 37.0933 211.382 35.84C211.915 34.6133 212.182 32.9733 212.182 30.92V26.6L213.142 23.68C213.115 25.6 212.702 27.2933 211.902 28.76C211.129 30.2267 210.049 31.3867 208.662 32.24C207.275 33.0667 205.649 33.48 203.782 33.48C202.209 33.48 200.795 33.1867 199.542 32.6C198.315 31.9867 197.275 31.1733 196.422 30.16C195.569 29.12 194.915 27.9467 194.462 26.64C194.009 25.3067 193.782 23.9467 193.782 22.56V22.16C193.782 20.8 194.009 19.48 194.462 18.2C194.915 16.8933 195.569 15.7333 196.422 14.72C197.275 13.68 198.329 12.8667 199.582 12.28C200.835 11.6667 202.262 11.36 203.862 11.36C205.809 11.36 207.489 11.8 208.902 12.68C210.315 13.56 211.395 14.7467 212.142 16.24C212.915 17.7333 213.315 19.3867 213.342 21.2L212.542 20.12V12H214.262V30.92C214.262 33.4267 213.915 35.4267 213.222 36.92C212.529 38.44 211.395 39.5333 209.822 40.2C208.249 40.8667 206.155 41.2 203.542 41.2ZM204.062 31.52C205.662 31.52 207.075 31.1733 208.302 30.48C209.529 29.76 210.489 28.7867 211.182 27.56C211.875 26.3067 212.222 24.8933 212.222 23.32V21.28C212.222 19.76 211.875 18.4 211.182 17.2C210.515 15.9733 209.569 15 208.342 14.28C207.115 13.56 205.702 13.2 204.102 13.2C202.342 13.2 200.849 13.6267 199.622 14.48C198.422 15.3333 197.502 16.4533 196.862 17.84C196.222 19.2267 195.902 20.7333 195.902 22.36C195.902 24.04 196.235 25.5867 196.902 27C197.569 28.3867 198.502 29.4933 199.702 30.32C200.929 31.12 202.382 31.52 204.062 31.52ZM231.381 33.68C229.621 33.68 228.061 33.36 226.701 32.72C225.341 32.08 224.194 31.24 223.261 30.2C222.354 29.16 221.661 28 221.181 26.72C220.727 25.4133 220.501 24.08 220.501 22.72V22.32C220.501 20.9333 220.741 19.5867 221.221 18.28C221.701 16.9733 222.407 15.8 223.341 14.76C224.274 13.72 225.407 12.8933 226.741 12.28C228.101 11.6667 229.647 11.36 231.381 11.36C233.087 11.36 234.607 11.6667 235.941 12.28C237.301 12.8933 238.447 13.72 239.381 14.76C240.314 15.8 241.021 16.9733 241.501 18.28C242.007 19.5867 242.261 20.9333 242.261 22.32V22.72C242.261 24.08 242.021 25.4133 241.541 26.72C241.061 28 240.354 29.16 239.421 30.2C238.514 31.24 237.381 32.08 236.021 32.72C234.687 33.36 233.141 33.68 231.381 33.68ZM231.381 31.72C233.247 31.72 234.821 31.2933 236.101 30.44C237.407 29.5867 238.394 28.4667 239.061 27.08C239.754 25.6667 240.101 24.1467 240.101 22.52C240.101 20.84 239.754 19.3067 239.061 17.92C238.367 16.5067 237.367 15.3867 236.061 14.56C234.781 13.7067 233.221 13.28 231.381 13.28C229.567 13.28 227.994 13.7067 226.661 14.56C225.354 15.3867 224.354 16.5067 223.661 17.92C222.967 19.3067 222.621 20.84 222.621 22.52C222.621 24.1467 222.954 25.6667 223.621 27.08C224.314 28.4667 225.314 29.5867 226.621 30.44C227.927 31.2933 229.514 31.72 231.381 31.72ZM249.826 33V12H251.986V33H249.826ZM246.346 13.84V12H251.986V13.84H246.346ZM250.026 7.6C249.466 7.6 249.039 7.45333 248.746 7.16C248.453 6.84 248.306 6.44 248.306 5.96C248.306 5.45333 248.453 5.04 248.746 4.72C249.039 4.4 249.479 4.24 250.066 4.24C250.626 4.24 251.053 4.4 251.346 4.72C251.639 5.04 251.786 5.45333 251.786 5.96C251.786 6.44 251.639 6.84 251.346 7.16C251.079 7.45333 250.639 7.6 250.026 7.6ZM260.268 33V12H261.948V20.88H261.628C261.628 17.84 262.308 15.5733 263.668 14.08C265.028 12.5867 267.228 11.84 270.268 11.84H270.988V13.76H269.868C267.388 13.76 265.522 14.4 264.268 15.68C263.015 16.9333 262.388 18.7867 262.388 21.24V33H260.268ZM284.453 33.68C282.667 33.68 281.12 33.3733 279.813 32.76C278.507 32.12 277.44 31.28 276.613 30.24C275.787 29.1733 275.16 27.9867 274.733 26.68C274.333 25.3467 274.133 24 274.133 22.64V22.24C274.133 20.8533 274.333 19.52 274.733 18.24C275.16 16.96 275.787 15.8 276.613 14.76C277.467 13.6933 278.52 12.8667 279.773 12.28C281.053 11.6667 282.533 11.36 284.213 11.36C286.347 11.36 288.133 11.84 289.573 12.8C291.04 13.7333 292.147 14.96 292.893 16.48C293.64 18 294.013 19.6 294.013 21.28V22.72H275.133V20.96H292.613L291.973 21.76C291.973 20.1333 291.667 18.68 291.053 17.4C290.467 16.12 289.587 15.12 288.413 14.4C287.267 13.6533 285.867 13.28 284.213 13.28C282.427 13.28 280.933 13.6933 279.733 14.52C278.533 15.3467 277.627 16.4533 277.013 17.84C276.427 19.2267 276.133 20.76 276.133 22.44C276.133 24.12 276.427 25.6667 277.013 27.08C277.627 28.4667 278.547 29.6 279.773 30.48C281 31.3333 282.56 31.76 284.453 31.76C286.48 31.76 288.107 31.2933 289.333 30.36C290.587 29.4267 291.347 28.3067 291.613 27H293.693C293.4 28.3067 292.84 29.4667 292.013 30.48C291.187 31.4933 290.133 32.28 288.853 32.84C287.6 33.4 286.133 33.68 284.453 33.68Z" fill="white"/>
<path d="M299.272 33V29.04H303.032V33H299.272Z" fill="#F13024"/>
</svg>
